<svg xmlns="http://www.w3.org/2000/svg" viewBox="0 0 1240 466" width="1240" height="466" font-family="Inter, 'DejaVu Sans', Arial, sans-serif" role="img" aria-label="Who Cambium is for: one governed institute, five audiences - researchers and PIs, research administrators and sponsored programs, developers and contributors, institutions and funders, and educators and learners.">
<defs>
<linearGradient id="bgg" x1="0" y1="0" x2="1" y2="1"><stop offset="0%" stop-color="#07231A"/><stop offset="100%" stop-color="#0A2A1F"/></linearGradient>
<linearGradient id="hexg" x1="0" y1="0" x2="1" y2="1"><stop offset="0%" stop-color="#B7F36A"/><stop offset="100%" stop-color="#16C079"/></linearGradient>
<radialGradient id="glow" cx="50%" cy="50%" r="50%"><stop offset="0%" stop-color="#B7F36A" stop-opacity="0.25"/><stop offset="100%" stop-color="#B7F36A" stop-opacity="0"/></radialGradient>
</defs>
<rect width="1240" height="466" fill="url(#bgg)"/>
<circle cx="1160" cy="300" r="80" fill="none" stroke="#16C079" stroke-width="1.3" opacity="0.050"/>
<circle cx="1160" cy="300" r="120" fill="none" stroke="#0E8E5B" stroke-width="1.3" opacity="0.065"/>
<circle cx="1160" cy="300" r="160" fill="none" stroke="#16C079" stroke-width="1.3" opacity="0.080"/>
<circle cx="1160" cy="300" r="200" fill="none" stroke="#0E8E5B" stroke-width="1.3" opacity="0.050"/>
<circle cx="1160" cy="300" r="240" fill="none" stroke="#16C079" stroke-width="1.3" opacity="0.065"/>
<circle cx="1160" cy="300" r="280" fill="none" stroke="#0E8E5B" stroke-width="1.3" opacity="0.080"/>
<circle cx="1160" cy="300" r="320" fill="none" stroke="#16C079" stroke-width="1.3" opacity="0.050"/>
<circle cx="1160" cy="300" r="360" fill="none" stroke="#0E8E5B" stroke-width="1.3" opacity="0.065"/>
<circle cx="1160" cy="300" r="400" fill="none" stroke="#16C079" stroke-width="1.3" opacity="0.080"/>
<circle cx="1160" cy="300" r="440" fill="none" stroke="#0E8E5B" stroke-width="1.3" opacity="0.050"/>
<circle cx="1160" cy="300" r="480" fill="none" stroke="#16C079" stroke-width="1.3" opacity="0.065"/>
<circle cx="1160" cy="300" r="520" fill="none" stroke="#0E8E5B" stroke-width="1.3" opacity="0.080"/>
<circle cx="62" cy="60" r="52" fill="url(#glow)"/>
<polygon points="62.0,30.0 88.0,45.0 88.0,75.0 62.0,90.0 36.0,75.0 36.0,45.0" fill="none" stroke="url(#hexg)" stroke-width="4" stroke-linejoin="round"/>
<circle cx="62" cy="60" r="7" fill="none" stroke="#16C079" stroke-width="1.2" opacity="0.5"/>
<circle cx="62" cy="60" r="15" fill="none" stroke="#16C079" stroke-width="1.2" opacity="0.5"/>
<circle cx="62" cy="60" r="23" fill="none" stroke="#16C079" stroke-width="1.2" opacity="0.5"/>
<circle cx="62" cy="60" r="4" fill="#B7F36A"/>
<text x="108" y="52" fill="#F4F7F2" font-size="30" font-weight="800" letter-spacing="1">WHO IT’S FOR</text>
<text x="110" y="80" fill="#16C079" font-size="16" font-weight="600" letter-spacing="0.5">One governed institute. Five ways in. The volume is the machine’s; the judgment stays yours.</text>
<line x1="30" y1="104" x2="1210" y2="104" stroke="#1F4D3B" stroke-width="1.3"/>
<rect x="30" y="124" width="223" height="316" rx="12" fill="#0E3326" stroke="#1F4D3B" stroke-width="1.3"/>
<rect x="30" y="124" width="223" height="6" rx="3" fill="#B7F36A"/>
<circle cx="56" cy="162" r="15" fill="#15402F" stroke="#B7F36A" stroke-width="1.4"/>
<text x="56" y="167" text-anchor="middle" fill="#B7F36A" font-size="15" font-weight="800">1</text>
<text x="48" y="202" fill="#F4F7F2" font-size="14" font-weight="800" letter-spacing="0">RESEARCHERS</text>
<text x="48" y="223" fill="#F4F7F2" font-size="14" font-weight="800" letter-spacing="0">&amp; PIs</text>
<text x="48" y="256" fill="#8AA197" font-size="13" font-weight="500">Run a project end to end,</text>
<text x="48" y="276" fill="#8AA197" font-size="13" font-weight="500">from RFP to publish,</text>
<text x="48" y="296" fill="#8AA197" font-size="13" font-weight="500">a human at every gate.</text>
<text x="48" y="422" fill="#0E8E5B" font-size="10.5" font-weight="600" font-family="ui-monospace, monospace">46 agents · 8 gates</text>
<rect x="269" y="124" width="223" height="316" rx="12" fill="#0E3326" stroke="#1F4D3B" stroke-width="1.3"/>
<rect x="269" y="124" width="223" height="6" rx="3" fill="#16C079"/>
<circle cx="295" cy="162" r="15" fill="#15402F" stroke="#16C079" stroke-width="1.4"/>
<text x="295" y="167" text-anchor="middle" fill="#16C079" font-size="15" font-weight="800">2</text>
<text x="287" y="202" fill="#F4F7F2" font-size="14" font-weight="800" letter-spacing="0">RESEARCH ADMIN</text>
<text x="287" y="223" fill="#F4F7F2" font-size="14" font-weight="800" letter-spacing="0">&amp; SPONSORED PROGRAMS</text>
<text x="287" y="256" fill="#8AA197" font-size="13" font-weight="500">Pre-award drafting,</text>
<text x="287" y="276" fill="#8AA197" font-size="13" font-weight="500">budget-to-solicitation review,</text>
<text x="287" y="296" fill="#8AA197" font-size="13" font-weight="500">an AI-use disclosure builder.</text>
<text x="287" y="422" fill="#0E8E5B" font-size="10.5" font-weight="600" font-family="ui-monospace, monospace">ai_disclosure · budget_review</text>
<rect x="508" y="124" width="223" height="316" rx="12" fill="#0E3326" stroke="#1F4D3B" stroke-width="1.3"/>
<rect x="508" y="124" width="223" height="6" rx="3" fill="#B7F36A"/>
<circle cx="534" cy="162" r="15" fill="#15402F" stroke="#B7F36A" stroke-width="1.4"/>
<text x="534" y="167" text-anchor="middle" fill="#B7F36A" font-size="15" font-weight="800">3</text>
<text x="526" y="202" fill="#F4F7F2" font-size="14" font-weight="800" letter-spacing="0">DEVELOPERS</text>
<text x="526" y="223" fill="#F4F7F2" font-size="14" font-weight="800" letter-spacing="0">&amp; CONTRIBUTORS</text>
<text x="526" y="256" fill="#8AA197" font-size="13" font-weight="500">A plugin with an MCP server,</text>
<text x="526" y="276" fill="#8AA197" font-size="13" font-weight="500">a 121-tool stdlib kit,</text>
<text x="526" y="296" fill="#8AA197" font-size="13" font-weight="500">tests, clean extension points.</text>
<text x="526" y="422" fill="#0E8E5B" font-size="10.5" font-weight="600" font-family="ui-monospace, monospace">MCP · pytest · skills</text>
<rect x="748" y="124" width="223" height="316" rx="12" fill="#0E3326" stroke="#1F4D3B" stroke-width="1.3"/>
<rect x="748" y="124" width="223" height="6" rx="3" fill="#16C079"/>
<circle cx="774" cy="162" r="15" fill="#15402F" stroke="#16C079" stroke-width="1.4"/>
<text x="774" y="167" text-anchor="middle" fill="#16C079" font-size="15" font-weight="800">4</text>
<text x="766" y="202" fill="#F4F7F2" font-size="14" font-weight="800" letter-spacing="0">INSTITUTIONS</text>
<text x="766" y="223" fill="#F4F7F2" font-size="14" font-weight="800" letter-spacing="0">&amp; FUNDERS</text>
<text x="766" y="256" fill="#8AA197" font-size="13" font-weight="500">MIT, local-first,</text>
<text x="766" y="276" fill="#8AA197" font-size="13" font-weight="500">data-sovereign; every gate</text>
<text x="766" y="296" fill="#8AA197" font-size="13" font-weight="500">logged in plain markdown.</text>
<text x="766" y="422" fill="#0E8E5B" font-size="10.5" font-weight="600" font-family="ui-monospace, monospace">GATES.md · auditable</text>
<rect x="987" y="124" width="223" height="316" rx="12" fill="#0E3326" stroke="#1F4D3B" stroke-width="1.3"/>
<rect x="987" y="124" width="223" height="6" rx="3" fill="#B7F36A"/>
<circle cx="1013" cy="162" r="15" fill="#15402F" stroke="#B7F36A" stroke-width="1.4"/>
<text x="1013" y="167" text-anchor="middle" fill="#B7F36A" font-size="15" font-weight="800">5</text>
<text x="1005" y="202" fill="#F4F7F2" font-size="14" font-weight="800" letter-spacing="0">EDUCATORS</text>
<text x="1005" y="223" fill="#F4F7F2" font-size="14" font-weight="800" letter-spacing="0">&amp; LEARNERS</text>
<text x="1005" y="256" fill="#8AA197" font-size="13" font-weight="500">The Academy: ten modules,</text>
<text x="1005" y="276" fill="#8AA197" font-size="13" font-weight="500">three tiers, plus a</text>
<text x="1005" y="296" fill="#8AA197" font-size="13" font-weight="500">Learning Lab every run.</text>
<text x="1005" y="422" fill="#0E8E5B" font-size="10.5" font-weight="600" font-family="ui-monospace, monospace">academy · learning gate</text>
<text x="1210" y="452" text-anchor="end" fill="#8AA197" font-size="12" font-weight="500">MIT · local-first · human-in-the-loop at every gate</text>
</svg>