<svg xmlns="http://www.w3.org/2000/svg" viewBox="0 0 960 320" width="960" height="320" font-family="Inter,-apple-system,BlinkMacSystemFont,'Segoe UI',Helvetica,Arial,sans-serif" role="img" aria-label="Cambium lifecycle">
<rect width="960" height="320" fill="#07231A"/>
<line x1="480" y1="40" x2="480" y2="280" stroke="#1F4D3B" stroke-width="1.5" stroke-dasharray="4 6"/>
<text x="240" y="34" text-anchor="middle" fill="#16C079" font-size="14" font-weight="700" letter-spacing="3">PRE-AWARD</text>
<text x="720" y="34" text-anchor="middle" fill="#16C079" font-size="14" font-weight="700" letter-spacing="3">POST-AWARD</text>
<line x1="70.0" y1="120.0" x2="172.5" y2="120.0" stroke="#16C079" stroke-width="2" opacity="0.55"/>
<line x1="172.5" y1="120.0" x2="275.0" y2="120.0" stroke="#16C079" stroke-width="2" opacity="0.55"/>
<line x1="275.0" y1="120.0" x2="377.5" y2="120.0" stroke="#16C079" stroke-width="2" opacity="0.55"/>
<line x1="377.5" y1="120.0" x2="480.0" y2="120.0" stroke="#16C079" stroke-width="2" opacity="0.55"/>
<line x1="480.0" y1="120.0" x2="582.5" y2="120.0" stroke="#16C079" stroke-width="2" opacity="0.55"/>
<line x1="582.5" y1="120.0" x2="685.0" y2="120.0" stroke="#16C079" stroke-width="2" opacity="0.55"/>
<line x1="685.0" y1="120.0" x2="787.5" y2="120.0" stroke="#16C079" stroke-width="2" opacity="0.55"/>
<line x1="787.5" y1="120.0" x2="890.0" y2="120.0" stroke="#16C079" stroke-width="2" opacity="0.55"/>
<path d="M 890.0 120.0 C 920.0 120.0 920.0 230.0 890.0 230.0" fill="none" stroke="#16C079" stroke-width="2" opacity="0.55"/>
<line x1="890.0" y1="230.0" x2="772.9" y2="230.0" stroke="#16C079" stroke-width="2" opacity="0.55"/>
<line x1="772.9" y1="230.0" x2="655.7" y2="230.0" stroke="#16C079" stroke-width="2" opacity="0.55"/>
<line x1="655.7" y1="230.0" x2="538.6" y2="230.0" stroke="#16C079" stroke-width="2" opacity="0.55"/>
<line x1="538.6" y1="230.0" x2="421.4" y2="230.0" stroke="#16C079" stroke-width="2" opacity="0.55"/>
<line x1="421.4" y1="230.0" x2="304.3" y2="230.0" stroke="#16C079" stroke-width="2" opacity="0.55"/>
<line x1="304.3" y1="230.0" x2="187.1" y2="230.0" stroke="#16C079" stroke-width="2" opacity="0.55"/>
<line x1="187.1" y1="230.0" x2="70.0" y2="230.0" stroke="#16C079" stroke-width="2" opacity="0.55"/>
<rect x="54.0" y="104.0" width="32" height="32" rx="3" transform="rotate(45 70.0 120.0)" fill="#B7F36A" stroke="#07231A" stroke-width="2"/>
<text x="70.0" y="124.0" text-anchor="middle" fill="#052015" font-size="12" font-weight="800">G0</text>
<rect x="133.5" y="103.0" width="78.0" height="34" rx="17" fill="#0E3326" stroke="#16C079" stroke-width="1.6"/>
<text x="172.5" y="124.0" text-anchor="middle" fill="#F4F7F2" font-size="13" font-weight="600">RFP</text>
<rect x="259.0" y="104.0" width="32" height="32" rx="3" transform="rotate(45 275.0 120.0)" fill="#B7F36A" stroke="#07231A" stroke-width="2"/>
<text x="275.0" y="124.0" text-anchor="middle" fill="#052015" font-size="12" font-weight="800">G1</text>
<rect x="338.5" y="103.0" width="78.0" height="34" rx="17" fill="#0E3326" stroke="#16C079" stroke-width="1.6"/>
<text x="377.5" y="124.0" text-anchor="middle" fill="#F4F7F2" font-size="13" font-weight="600">Ideate</text>
<rect x="464.0" y="104.0" width="32" height="32" rx="3" transform="rotate(45 480.0 120.0)" fill="#B7F36A" stroke="#07231A" stroke-width="2"/>
<text x="480.0" y="124.0" text-anchor="middle" fill="#052015" font-size="12" font-weight="800">G2</text>
<rect x="550.5" y="103.0" width="64" height="34" rx="17" fill="#0E3326" stroke="#16C079" stroke-width="1.6"/>
<text x="582.5" y="124.0" text-anchor="middle" fill="#F4F7F2" font-size="13" font-weight="600">Aims</text>
<rect x="630.1" y="103.0" width="109.8" height="34" rx="17" fill="#0E3326" stroke="#16C079" stroke-width="1.6"/>
<text x="685.0" y="124.0" text-anchor="middle" fill="#F4F7F2" font-size="13" font-weight="600">Collaborators</text>
<rect x="771.5" y="104.0" width="32" height="32" rx="3" transform="rotate(45 787.5 120.0)" fill="#B7F36A" stroke="#07231A" stroke-width="2"/>
<text x="787.5" y="124.0" text-anchor="middle" fill="#052015" font-size="12" font-weight="800">G3a</text>
<rect x="851.0" y="103.0" width="78.0" height="34" rx="17" fill="#0E3326" stroke="#16C079" stroke-width="1.6"/>
<text x="890.0" y="124.0" text-anchor="middle" fill="#F4F7F2" font-size="13" font-weight="600">Proposal</text>
<rect x="874.0" y="214.0" width="32" height="32" rx="3" transform="rotate(45 890.0 230.0)" fill="#B7F36A" stroke="#07231A" stroke-width="2"/>
<text x="890.0" y="234.0" text-anchor="middle" fill="#052015" font-size="12" font-weight="800">G3</text>
<rect x="733.9" y="213.0" width="78.0" height="34" rx="17" fill="#0E3326" stroke="#16C079" stroke-width="1.6"/>
<text x="772.9" y="234.0" text-anchor="middle" fill="#F4F7F2" font-size="13" font-weight="600">Develop</text>
<rect x="616.7" y="213.0" width="78.0" height="34" rx="17" fill="#0E3326" stroke="#16C079" stroke-width="1.6"/>
<text x="655.7" y="234.0" text-anchor="middle" fill="#F4F7F2" font-size="13" font-weight="600">Verify</text>
<rect x="522.6" y="214.0" width="32" height="32" rx="3" transform="rotate(45 538.6 230.0)" fill="#B7F36A" stroke="#07231A" stroke-width="2"/>
<text x="538.6" y="234.0" text-anchor="middle" fill="#052015" font-size="12" font-weight="800">G4</text>
<rect x="382.4" y="213.0" width="78.0" height="34" rx="17" fill="#0E3326" stroke="#16C079" stroke-width="1.6"/>
<text x="421.4" y="234.0" text-anchor="middle" fill="#F4F7F2" font-size="13" font-weight="600">Revise</text>
<rect x="265.3" y="213.0" width="78.0" height="34" rx="17" fill="#0E3326" stroke="#16C079" stroke-width="1.6"/>
<text x="304.3" y="234.0" text-anchor="middle" fill="#F4F7F2" font-size="13" font-weight="600">Report</text>
<rect x="171.1" y="214.0" width="32" height="32" rx="3" transform="rotate(45 187.1 230.0)" fill="#B7F36A" stroke="#07231A" stroke-width="2"/>
<text x="187.1" y="234.0" text-anchor="middle" fill="#052015" font-size="12" font-weight="800">G5</text>
<rect x="54.0" y="214.0" width="32" height="32" rx="3" transform="rotate(45 70.0 230.0)" fill="#B7F36A" stroke="#07231A" stroke-width="2"/>
<text x="70.0" y="234.0" text-anchor="middle" fill="#052015" font-size="12" font-weight="800">G6</text>
<g transform="translate(70,294)">
<rect x="0" y="-9" width="16" height="16" rx="2" transform="rotate(45 8 -1)" fill="#B7F36A"/>
<text x="22" y="-1" fill="#8AA197" font-size="12">Gate</text>
<rect x="78" y="-10" width="34" height="18" rx="9" fill="#0E3326" stroke="#16C079" stroke-width="1.4"/>
<text x="122" y="-1" fill="#8AA197" font-size="12">Stage</text>
</g>
</svg>