<svg xmlns="http://www.w3.org/2000/svg" viewBox="0 0 820 200"><defs>
  <radialGradient id="tile" cx="38%" cy="30%" r="85%">
    <stop offset="0%" stop-color="#15402F"/><stop offset="55%" stop-color="#0E3326"/><stop offset="100%" stop-color="#07231A"/>
  </radialGradient>
  <radialGradient id="glow" cx="50%" cy="50%" r="50%">
    <stop offset="0%" stop-color="#B7F36A" stop-opacity="0.95"/><stop offset="35%" stop-color="#B7F36A" stop-opacity="0.45"/><stop offset="100%" stop-color="#B7F36A" stop-opacity="0"/>
  </radialGradient>
  <linearGradient id="spoke" x1="0" y1="0" x2="1" y2="0">
    <stop offset="0%" stop-color="#16C079" stop-opacity="0.5"/><stop offset="100%" stop-color="#B7F36A" stop-opacity="0.95"/>
  </linearGradient>
  <linearGradient id="sheen" x1="0" y1="0" x2="0" y2="1">
    <stop offset="0%" stop-color="#FFFFFF" stop-opacity="0.10"/><stop offset="22%" stop-color="#FFFFFF" stop-opacity="0"/>
  </linearGradient>
</defs>
  <g>
    <rect x="40" y="22.0" width="156" height="156" rx="26" fill="url(#tile)" stroke="#1F4D3B" stroke-width="1.2"/>
    <rect x="40" y="22.0" width="156" height="156" rx="26" fill="url(#sheen)"/>
    <circle cx="118" cy="100.0" r="21.00" fill="none" stroke="#16C079" stroke-width="1.18" opacity="0.30"/>
<circle cx="118" cy="100.0" r="30.80" fill="none" stroke="#16C079" stroke-width="1.13" opacity="0.42"/>
<circle cx="118" cy="100.0" r="40.60" fill="none" stroke="#16C079" stroke-width="1.09" opacity="0.55"/>
<circle cx="118" cy="100.0" r="50.40" fill="none" stroke="#16C079" stroke-width="1.04" opacity="0.67"/>
<circle cx="118" cy="100.0" r="60.20" fill="none" stroke="#16C079" stroke-width="1.00" opacity="0.80"/>
<circle cx="118" cy="100.0" r="70.00" fill="none" stroke="#16C079" stroke-width="0.95" opacity="0.92"/>
<circle cx="76.8" cy="80.8" r="1.26" fill="#16C079" opacity="0.5"/>
<circle cx="156.7" cy="53.9" r="1.26" fill="#16C079" opacity="0.42"/>
<circle cx="91.3" cy="115.4" r="1.26" fill="#16C079" opacity="0.55"/>
<line x1="118" y1="100.0" x2="155.1" y2="147.4" stroke="url(#spoke)" stroke-width="1.23" stroke-linecap="round"/>
<circle cx="155.1" cy="147.4" r="14.0" fill="url(#glow)"/>
<circle cx="155.1" cy="147.4" r="5.0" fill="#B7F36A"/>
<circle cx="153.7" cy="146.0" r="1.8" fill="#EAFFC9"/>
<circle cx="118" cy="100.0" r="3.5" fill="#16C079"/>
<circle cx="118" cy="100.0" r="1.5" fill="#B7F36A"/>
  </g>
  <text x="232" y="98.0" font-family="Inter, 'DejaVu Sans', sans-serif" font-weight="800" font-size="80" letter-spacing="-3" fill="#F4F7F2">Cambium<tspan fill="#B7F36A">.</tspan></text>
  <text x="236" y="144.0" font-family="Inter, 'DejaVu Sans', sans-serif" font-weight="500" font-size="23" letter-spacing="1.5" fill="#8AA197">RESEARCH INSTITUTION · ONE SENTENCE</text>
</svg>