<svg xmlns="http://www.w3.org/2000/svg" viewBox="0 0 1120 812" width="1120" height="812" font-family="Inter, 'DejaVu Sans', Arial, sans-serif" role="img" aria-label="Every risk of AI in research mapped to a Cambium control and how hard the control is enforced, with the real source file for each.">
<defs><linearGradient id="bgg" x1="0" y1="0" x2="1" y2="1"><stop offset="0%" stop-color="#07231A"/><stop offset="100%" stop-color="#0A2A1F"/></linearGradient>
<marker id="arw" markerWidth="9" markerHeight="9" refX="7" refY="4.5" orient="auto"><path d="M0,0 L9,4.5 L0,9 Z" fill="#16C079"/></marker></defs>
<rect width="1120" height="812" fill="url(#bgg)"/>
<circle cx="1080" cy="772" r="80" fill="none" stroke="#16C079" stroke-width="1.2" opacity="0.050"/>
<circle cx="1080" cy="772" r="122" fill="none" stroke="#0E8E5B" stroke-width="1.2" opacity="0.064"/>
<circle cx="1080" cy="772" r="164" fill="none" stroke="#16C079" stroke-width="1.2" opacity="0.078"/>
<circle cx="1080" cy="772" r="206" fill="none" stroke="#0E8E5B" stroke-width="1.2" opacity="0.050"/>
<circle cx="1080" cy="772" r="248" fill="none" stroke="#16C079" stroke-width="1.2" opacity="0.064"/>
<circle cx="1080" cy="772" r="290" fill="none" stroke="#0E8E5B" stroke-width="1.2" opacity="0.078"/>
<circle cx="1080" cy="772" r="332" fill="none" stroke="#16C079" stroke-width="1.2" opacity="0.050"/>
<circle cx="1080" cy="772" r="374" fill="none" stroke="#0E8E5B" stroke-width="1.2" opacity="0.064"/>
<circle cx="1080" cy="772" r="416" fill="none" stroke="#16C079" stroke-width="1.2" opacity="0.078"/>
<circle cx="1080" cy="772" r="458" fill="none" stroke="#0E8E5B" stroke-width="1.2" opacity="0.050"/>
<circle cx="1080" cy="772" r="500" fill="none" stroke="#16C079" stroke-width="1.2" opacity="0.064"/>
<circle cx="1080" cy="772" r="542" fill="none" stroke="#0E8E5B" stroke-width="1.2" opacity="0.078"/>
<text x="40" y="46" fill="#F4F7F2" font-size="27" font-weight="800">Every risk, its control, and how hard the control bites</text>
<text x="40" y="74" fill="#8AA197" font-size="14">Most tools answer AI risk with a policy page. Cambium wires each risk to something that runs. Where a control is softer, this diagram says so.</text>
<text x="44" y="112" fill="#E58A8A" font-size="12" font-weight="700" letter-spacing="1.5">THE RISK</text>
<text x="476" y="112" fill="#16C079" font-size="12" font-weight="700" letter-spacing="1.5">THE CONTROL, AND HOW HARD IT BITES</text>
<rect x="40" y="128" width="372" height="78" rx="11" fill="#0E3326" stroke="#7d3b3b" stroke-width="1.4"/>
<rect x="40" y="128" width="5" height="78" rx="2.5" fill="#E58A8A"/>
<text x="60" y="159" fill="#F4F7F2" font-size="15.5" font-weight="700">Overclaiming</text>
<text x="60" y="181" fill="#8AA197" font-size="12">stating more than the evidence supports</text>
<line x1="422" y1="167.0" x2="464" y2="167.0" stroke="#16C079" stroke-width="2" marker-end="url(#arw)"/>
<rect x="476" y="128" width="604" height="78" rx="11" fill="#0E3326" stroke="#1F4D3B" stroke-width="1.4"/>
<rect x="476" y="128" width="5" height="78" rx="2.5" fill="#B7F36A"/>
<text x="496" y="155" fill="#B7F36A" font-size="15.5" font-weight="800">Four-tier evidence contract</text>
<rect x="924" y="139" width="142" height="20" rx="10" fill="none" stroke="#B7F36A" stroke-width="1.3"/>
<text x="995" y="153" text-anchor="middle" fill="#B7F36A" font-size="10.5" font-weight="700">CI blocks the build</text>
<text x="496" y="176" fill="#8AA197" font-size="12">validate.py fails the build on any claim past its evidence tier</text>
<text x="496" y="195" fill="#0E8E5B" font-size="11" font-weight="600" font-family="ui-monospace, monospace">governance/validate.py</text>
<rect x="40" y="212" width="372" height="78" rx="11" fill="#0E3326" stroke="#7d3b3b" stroke-width="1.4"/>
<rect x="40" y="212" width="5" height="78" rx="2.5" fill="#E58A8A"/>
<text x="60" y="243" fill="#F4F7F2" font-size="15.5" font-weight="700">Fabricated or unresolvable citations</text>
<text x="60" y="265" fill="#8AA197" font-size="12">references that do not exist</text>
<line x1="422" y1="251.0" x2="464" y2="251.0" stroke="#16C079" stroke-width="2" marker-end="url(#arw)"/>
<rect x="476" y="212" width="604" height="78" rx="11" fill="#0E3326" stroke="#1F4D3B" stroke-width="1.4"/>
<rect x="476" y="212" width="5" height="78" rx="2.5" fill="#B7F36A"/>
<text x="496" y="239" fill="#B7F36A" font-size="15.5" font-weight="800">Citation resolution</text>
<rect x="924" y="223" width="142" height="20" rx="10" fill="none" stroke="#B7F36A" stroke-width="1.3"/>
<text x="995" y="237" text-anchor="middle" fill="#B7F36A" font-size="10.5" font-weight="700">CI blocks the build</text>
<text x="496" y="260" fill="#8AA197" font-size="12">unresolved or unsupported = release blocker; DOIs checked at Crossref / doi.org</text>
<text x="496" y="279" fill="#0E8E5B" font-size="11" font-weight="600" font-family="ui-monospace, monospace">validate.py · paper_search.py</text>
<rect x="40" y="296" width="372" height="78" rx="11" fill="#0E3326" stroke="#7d3b3b" stroke-width="1.4"/>
<rect x="40" y="296" width="5" height="78" rx="2.5" fill="#E58A8A"/>
<text x="60" y="327" fill="#F4F7F2" font-size="15.5" font-weight="700">Speed collapses human judgment</text>
<text x="60" y="349" fill="#8AA197" font-size="12">decisions outrun deliberation</text>
<line x1="422" y1="335.0" x2="464" y2="335.0" stroke="#16C079" stroke-width="2" marker-end="url(#arw)"/>
<rect x="476" y="296" width="604" height="78" rx="11" fill="#0E3326" stroke="#1F4D3B" stroke-width="1.4"/>
<rect x="476" y="296" width="5" height="78" rx="2.5" fill="#16C079"/>
<text x="496" y="323" fill="#16C079" font-size="15.5" font-weight="800">Pace check</text>
<rect x="867" y="307" width="199" height="20" rx="10" fill="none" stroke="#16C079" stroke-width="1.3"/>
<text x="966" y="321" text-anchor="middle" fill="#16C079" font-size="10.5" font-weight="700">gate-enforced, token-checked</text>
<text x="496" y="344" fill="#8AA197" font-size="12">a deliberation interval between gates, enforced in the gauntlet</text>
<text x="496" y="363" fill="#0E8E5B" font-size="11" font-weight="600" font-family="ui-monospace, monospace">tools/pace_check.py</text>
<rect x="40" y="380" width="372" height="78" rx="11" fill="#0E3326" stroke="#7d3b3b" stroke-width="1.4"/>
<rect x="40" y="380" width="5" height="78" rx="2.5" fill="#E58A8A"/>
<text x="60" y="411" fill="#F4F7F2" font-size="15.5" font-weight="700">AI erases the human's learning</text>
<text x="60" y="433" fill="#8AA197" font-size="12">you ship work you did not grow into</text>
<line x1="422" y1="419.0" x2="464" y2="419.0" stroke="#16C079" stroke-width="2" marker-end="url(#arw)"/>
<rect x="476" y="380" width="604" height="78" rx="11" fill="#0E3326" stroke="#1F4D3B" stroke-width="1.4"/>
<rect x="476" y="380" width="5" height="78" rx="2.5" fill="#16C079"/>
<text x="496" y="407" fill="#16C079" font-size="15.5" font-weight="800">Learning Gate</text>
<rect x="867" y="391" width="199" height="20" rx="10" fill="none" stroke="#16C079" stroke-width="1.3"/>
<text x="966" y="405" text-anchor="middle" fill="#16C079" font-size="10.5" font-weight="700">gate-enforced, token-checked</text>
<text x="496" y="428" fill="#8AA197" font-size="12">a run cannot close until it delivers a learning packet</text>
<text x="496" y="447" fill="#0E8E5B" font-size="11" font-weight="600" font-family="ui-monospace, monospace">tools/learning_delivery.py</text>
<rect x="40" y="464" width="372" height="78" rx="11" fill="#0E3326" stroke="#7d3b3b" stroke-width="1.4"/>
<rect x="40" y="464" width="5" height="78" rx="2.5" fill="#E58A8A"/>
<text x="60" y="495" fill="#F4F7F2" font-size="15.5" font-weight="700">Authorship and accountability blur</text>
<text x="60" y="517" fill="#8AA197" font-size="12">no one is responsible</text>
<line x1="422" y1="503.0" x2="464" y2="503.0" stroke="#16C079" stroke-width="2" marker-end="url(#arw)"/>
<rect x="476" y="464" width="604" height="78" rx="11" fill="#0E3326" stroke="#1F4D3B" stroke-width="1.4"/>
<rect x="476" y="464" width="5" height="78" rx="2.5" fill="#16C079"/>
<text x="496" y="491" fill="#16C079" font-size="15.5" font-weight="800">Named signature at every gate</text>
<rect x="867" y="475" width="199" height="20" rx="10" fill="none" stroke="#16C079" stroke-width="1.3"/>
<text x="966" y="489" text-anchor="middle" fill="#16C079" font-size="10.5" font-weight="700">gate-enforced, token-checked</text>
<text x="496" y="512" fill="#8AA197" font-size="12">a person's approval token is required and logged; AI is never an author</text>
<text x="496" y="531" fill="#0E8E5B" font-size="11" font-weight="600" font-family="ui-monospace, monospace">gate_lock.py · GATES.md</text>
<rect x="40" y="548" width="372" height="78" rx="11" fill="#0E3326" stroke="#7d3b3b" stroke-width="1.4"/>
<rect x="40" y="548" width="5" height="78" rx="2.5" fill="#E58A8A"/>
<text x="60" y="579" fill="#F4F7F2" font-size="15.5" font-weight="700">Bias goes unexamined</text>
<text x="60" y="601" fill="#8AA197" font-size="12">unfairness ships unchecked</text>
<line x1="422" y1="587.0" x2="464" y2="587.0" stroke="#16C079" stroke-width="2" marker-end="url(#arw)"/>
<rect x="476" y="548" width="604" height="78" rx="11" fill="#0E3326" stroke="#1F4D3B" stroke-width="1.4"/>
<rect x="476" y="548" width="5" height="78" rx="2.5" fill="#E8B84B"/>
<text x="496" y="575" fill="#E8B84B" font-size="15.5" font-weight="800">Bias checklist (NIST AI RMF)</text>
<rect x="854" y="559" width="212" height="20" rx="10" fill="none" stroke="#E8B84B" stroke-width="1.3"/>
<text x="960" y="573" text-anchor="middle" fill="#E8B84B" font-size="10.5" font-weight="700">required check before the gate</text>
<text x="496" y="596" fill="#8AA197" font-size="12">a required checklist completed before the results gates</text>
<text x="496" y="615" fill="#0E8E5B" font-size="11" font-weight="600" font-family="ui-monospace, monospace">templates/BIAS_MITIGATION_CHECKLIST.md</text>
<rect x="40" y="632" width="372" height="78" rx="11" fill="#0E3326" stroke="#7d3b3b" stroke-width="1.4"/>
<rect x="40" y="632" width="5" height="78" rx="2.5" fill="#E58A8A"/>
<text x="60" y="663" fill="#F4F7F2" font-size="15.5" font-weight="700">Sensitive data leaks</text>
<text x="60" y="685" fill="#8AA197" font-size="12">PII or regulated data escapes</text>
<line x1="422" y1="671.0" x2="464" y2="671.0" stroke="#16C079" stroke-width="2" marker-end="url(#arw)"/>
<rect x="476" y="632" width="604" height="78" rx="11" fill="#0E3326" stroke="#1F4D3B" stroke-width="1.4"/>
<rect x="476" y="632" width="5" height="78" rx="2.5" fill="#E8B84B"/>
<text x="496" y="659" fill="#E8B84B" font-size="15.5" font-weight="800">PII / regulated-data scan</text>
<rect x="854" y="643" width="212" height="20" rx="10" fill="none" stroke="#E8B84B" stroke-width="1.3"/>
<text x="960" y="657" text-anchor="middle" fill="#E8B84B" font-size="10.5" font-weight="700">required check before the gate</text>
<text x="496" y="680" fill="#8AA197" font-size="12">scans for sensitive data in your own account before release</text>
<text x="496" y="699" fill="#0E8E5B" font-size="11" font-weight="600" font-family="ui-monospace, monospace">tools/pii_screen.py</text>
<text x="40" y="728" fill="#6E877B" font-size="11.5" font-weight="600">HOW HARD IT BITES:</text>
<rect x="190" y="714" width="14" height="14" rx="3" fill="#B7F36A"/>
<text x="211" y="726" fill="#8AA197" font-size="12">CI blocks the build</text>
<rect x="355.4" y="714" width="14" height="14" rx="3" fill="#16C079"/>
<text x="376.4" y="726" fill="#8AA197" font-size="12">gate-enforced, token-checked</text>
<rect x="580.1999999999999" y="714" width="14" height="14" rx="3" fill="#E8B84B"/>
<text x="601.1999999999999" y="726" fill="#8AA197" font-size="12">required check before the gate</text>
<rect x="40" y="750" width="1040" height="34" rx="10" fill="#B7F36A"/>
<text x="560" y="772" text-anchor="middle" fill="#0a2a1f" font-size="14" font-weight="700">The human stays responsible for validity, ethics, and decisions.</text>
</svg>