<svg xmlns="http://www.w3.org/2000/svg" viewBox="0 0 1280 640"><defs>
  <radialGradient id="tile" cx="38%" cy="30%" r="85%">
    <stop offset="0%" stop-color="#15402F"/><stop offset="55%" stop-color="#0E3326"/><stop offset="100%" stop-color="#07231A"/>
  </radialGradient>
  <radialGradient id="glow" cx="50%" cy="50%" r="50%">
    <stop offset="0%" stop-color="#B7F36A" stop-opacity="0.95"/><stop offset="35%" stop-color="#B7F36A" stop-opacity="0.45"/><stop offset="100%" stop-color="#B7F36A" stop-opacity="0"/>
  </radialGradient>
  <linearGradient id="spoke" x1="0" y1="0" x2="1" y2="0">
    <stop offset="0%" stop-color="#16C079" stop-opacity="0.5"/><stop offset="100%" stop-color="#B7F36A" stop-opacity="0.95"/>
  </linearGradient>
  <linearGradient id="sheen" x1="0" y1="0" x2="0" y2="1">
    <stop offset="0%" stop-color="#FFFFFF" stop-opacity="0.10"/><stop offset="22%" stop-color="#FFFFFF" stop-opacity="0"/>
  </linearGradient>
</defs>
  <defs>
    <radialGradient id="bgmesh" cx="72%" cy="22%" r="80%">
      <stop offset="0%" stop-color="#15402F"/><stop offset="48%" stop-color="#0E3326"/><stop offset="100%" stop-color="#07231A"/>
    </radialGradient>
  </defs>
  <rect width="1280" height="640" fill="#07231A"/>
  <rect width="1280" height="640" fill="url(#bgmesh)"/>
  <g opacity="0.10">
<line x1="436" y1="131" x2="586" y2="212" stroke="#16C079" stroke-width="1"/>
<line x1="815" y1="89" x2="695" y2="84" stroke="#16C079" stroke-width="1"/>
<line x1="682" y1="247" x2="729" y2="264" stroke="#16C079" stroke-width="1"/>
<line x1="127" y1="324" x2="103" y2="284" stroke="#16C079" stroke-width="1"/>
<line x1="103" y1="284" x2="127" y2="324" stroke="#16C079" stroke-width="1"/>
<line x1="141" y1="99" x2="129" y2="161" stroke="#16C079" stroke-width="1"/>
<line x1="552" y1="497" x2="669" y2="523" stroke="#16C079" stroke-width="1"/>
<line x1="204" y1="171" x2="227" y2="114" stroke="#16C079" stroke-width="1"/>
<line x1="788" y1="562" x2="669" y2="523" stroke="#16C079" stroke-width="1"/>
<line x1="729" y1="264" x2="682" y2="247" stroke="#16C079" stroke-width="1"/>
<line x1="1192" y1="75" x2="1197" y2="114" stroke="#16C079" stroke-width="1"/>
<line x1="1056" y1="206" x2="906" y2="205" stroke="#16C079" stroke-width="1"/>
<line x1="227" y1="114" x2="204" y2="171" stroke="#16C079" stroke-width="1"/>
<line x1="418" y1="491" x2="424" y2="366" stroke="#16C079" stroke-width="1"/>
<line x1="270" y1="364" x2="343" y2="360" stroke="#16C079" stroke-width="1"/>
<line x1="801" y1="251" x2="849" y2="281" stroke="#16C079" stroke-width="1"/>
<line x1="695" y1="84" x2="815" y2="89" stroke="#16C079" stroke-width="1"/>
<line x1="129" y1="161" x2="141" y2="99" stroke="#16C079" stroke-width="1"/>
<line x1="849" y1="281" x2="801" y2="251" stroke="#16C079" stroke-width="1"/>
<line x1="424" y1="366" x2="343" y2="360" stroke="#16C079" stroke-width="1"/>
<line x1="586" y1="212" x2="682" y2="247" stroke="#16C079" stroke-width="1"/>
<line x1="981" y1="427" x2="849" y2="281" stroke="#16C079" stroke-width="1"/>
<line x1="343" y1="360" x2="270" y2="364" stroke="#16C079" stroke-width="1"/>
<line x1="669" y1="523" x2="552" y2="497" stroke="#16C079" stroke-width="1"/>
<line x1="906" y1="205" x2="849" y2="281" stroke="#16C079" stroke-width="1"/>
<line x1="1197" y1="114" x2="1192" y2="75" stroke="#16C079" stroke-width="1"/>
<circle cx="436" cy="131" r="2.4" fill="#16C079"/>
<circle cx="815" cy="89" r="2.4" fill="#16C079"/>
<circle cx="682" cy="247" r="2.4" fill="#16C079"/>
<circle cx="127" cy="324" r="2.4" fill="#16C079"/>
<circle cx="103" cy="284" r="2.4" fill="#16C079"/>
<circle cx="141" cy="99" r="2.4" fill="#16C079"/>
<circle cx="552" cy="497" r="2.4" fill="#16C079"/>
<circle cx="204" cy="171" r="2.4" fill="#16C079"/>
<circle cx="788" cy="562" r="2.4" fill="#16C079"/>
<circle cx="729" cy="264" r="2.4" fill="#16C079"/>
<circle cx="1192" cy="75" r="2.4" fill="#16C079"/>
<circle cx="1056" cy="206" r="2.4" fill="#16C079"/>
<circle cx="227" cy="114" r="2.4" fill="#16C079"/>
<circle cx="418" cy="491" r="2.4" fill="#16C079"/>
<circle cx="270" cy="364" r="2.4" fill="#16C079"/>
<circle cx="801" cy="251" r="2.4" fill="#16C079"/>
<circle cx="695" cy="84" r="2.4" fill="#16C079"/>
<circle cx="129" cy="161" r="2.4" fill="#16C079"/>
<circle cx="849" cy="281" r="2.4" fill="#16C079"/>
<circle cx="424" cy="366" r="2.4" fill="#16C079"/>
<circle cx="586" cy="212" r="2.4" fill="#16C079"/>
<circle cx="981" cy="427" r="2.4" fill="#16C079"/>
<circle cx="343" cy="360" r="2.4" fill="#16C079"/>
<circle cx="669" cy="523" r="2.4" fill="#16C079"/>
<circle cx="906" cy="205" r="2.4" fill="#16C079"/>
<circle cx="1197" cy="114" r="2.4" fill="#16C079"/>
</g>
  <rect x="20" y="20" width="1240" height="600" rx="28" fill="none" stroke="#1F4D3B" stroke-width="1.5" opacity="0.8"/>
  <!-- mark tile -->
  <g>
    <rect x="96" y="232" width="184" height="184" rx="34" fill="url(#tile)" stroke="#1F4D3B" stroke-width="1.5"/>
    <rect x="96" y="232" width="184" height="184" rx="34" fill="url(#sheen)"/>
    <circle cx="188" cy="324" r="24.00" fill="none" stroke="#16C079" stroke-width="1.34" opacity="0.30"/>
<circle cx="188" cy="324" r="35.20" fill="none" stroke="#16C079" stroke-width="1.29" opacity="0.42"/>
<circle cx="188" cy="324" r="46.40" fill="none" stroke="#16C079" stroke-width="1.24" opacity="0.55"/>
<circle cx="188" cy="324" r="57.60" fill="none" stroke="#16C079" stroke-width="1.19" opacity="0.67"/>
<circle cx="188" cy="324" r="68.80" fill="none" stroke="#16C079" stroke-width="1.14" opacity="0.80"/>
<circle cx="188" cy="324" r="80.00" fill="none" stroke="#16C079" stroke-width="1.09" opacity="0.92"/>
<circle cx="140.9" cy="302.0" r="1.44" fill="#16C079" opacity="0.5"/>
<circle cx="232.2" cy="271.3" r="1.44" fill="#16C079" opacity="0.42"/>
<circle cx="157.5" cy="341.6" r="1.44" fill="#16C079" opacity="0.55"/>
<line x1="188" y1="324" x2="230.4" y2="378.2" stroke="url(#spoke)" stroke-width="1.41" stroke-linecap="round"/>
<circle cx="230.4" cy="378.2" r="16.0" fill="url(#glow)"/>
<circle cx="230.4" cy="378.2" r="5.8" fill="#B7F36A"/>
<circle cx="228.8" cy="376.6" r="2.1" fill="#EAFFC9"/>
<circle cx="188" cy="324" r="4.0" fill="#16C079"/>
<circle cx="188" cy="324" r="1.8" fill="#B7F36A"/>
  </g>
  <text x="334" y="290" font-family="Inter, 'DejaVu Sans', sans-serif" font-weight="800" font-size="118" letter-spacing="-4" fill="#F4F7F2">Cambium<tspan fill="#B7F36A">.</tspan></text>
  <text x="338" y="356" font-family="Inter, 'DejaVu Sans', sans-serif" font-weight="500" font-size="32" fill="#8AA197">A research institution you run with one sentence —</text>
  <text x="338" y="398" font-family="Inter, 'DejaVu Sans', sans-serif" font-weight="500" font-size="32" fill="#8AA197">RFP to verified results, human-in-the-loop at every gate.</text>
  <g font-family="Inter, 'DejaVu Sans', sans-serif" font-weight="700" font-size="33">
    <text x="338" y="470" fill="#16C079">46<tspan fill="#F4F7F2" font-weight="600"> agents</tspan></text>
    <text x="520" y="470" fill="#8AA197" font-weight="400">·</text>
    <text x="548" y="470" fill="#16C079">11<tspan fill="#F4F7F2" font-weight="600"> councils</tspan></text>
    <text x="760" y="470" fill="#8AA197" font-weight="400">·</text>
    <text x="788" y="470" fill="#B7F36A">8<tspan fill="#F4F7F2" font-weight="600"> human gates</tspan></text>
  </g>
  <text x="338" y="540" font-family="Inter, 'DejaVu Sans', sans-serif" font-weight="500" font-size="22" fill="#0E8E5B" letter-spacing="1">MIT · open source · runs in your Claude · the Cambium way</text>
</svg>